{"title":"Minions 2015 720p BRRip X264 MP4 Multisubs AAC-CC","uid":12610912,"size":2003403571,"categoryP":"video","categoryS":"hd___movies","magnet":"?xt=urn:btih:dd4fef4906a76a207d6e4b923c9efdef7c65d1f9&amp;dn=Minions+2015+720p+BRRip+X264+MP4+Multisubs+AAC-CC&amp;tr=udp%3A%2F%2Ftracker.leechers-paradise.org%3A6969&amp;tr=udp%3A%2F%2Fzer0day.ch%3A1337&amp;tr=udp%3A%2F%2Fopen.demonii.com%3A1337&amp;tr=udp%3A%2F%2Ftracker.coppersurfer.tk%3A6969&amp;tr=udp%3A%2F%2Fexodus.desync.com%3A6969","seeders":1,"leechers":2,"uploader":"Caveman44","files":35,"time":1445457774,"description":"[img]http://s14.postimg.org/6g9lk5xlt/Minions_2015_Bluray_320x200.jpg[/img]\r\n \nhttp://www.imdb.com/title/tt2293640\r\n\r\nSource: Minions.2015.720p.BluRay.x264-GECKOS Thanks!\r\n\r\nSubs ( Subrip ) : Arabic, Bulgarian, Dutch, English HI, Farsi Persian, French, Hebrew, Indonesian, Italian, Malay, Portuguese, Romanian, Spanish, Turkish, Vietnamese.\r\n\r\nSubs ( Vobsubs ) : English.\r\n\r\nSample and Screens included.\r\n\r\nGeneral\r\nComplete name                            : Minions 2015 720p BRRip X264 MP4 Multisubs AAC-CC.mp4\r\nFormat                                   : MPEG-4\r\nFormat profile                           : Base Media\r\nCodec ID                                 : isom\r\nFile size                                : 1.83 GiB\r\nDuration                                 : 1h 30mn\r\nOverall bit rate mode                    : Variable\r\nOverall bit rate                         : 2 879 Kbps\r\nEncoded date                             : UTC 2015-10-20 15:28:05\r\nTagged date                              : UTC 2015-10-20 15:28:05\r\nWriting application                      : Yamb 2.1.0.0 \r\n\r\nVideo\r\nID                                       : 1\r\nFormat                                   : AVC\r\nFormat/Info                              : Advanced Video Codec\r\nFormat profile                           :   \r\nFormat settings, CABAC                   : Yes\r\nFormat settings, ReFrames                : 5 frames\r\nCodec ID                                 : avc1\r\nCodec ID/Info                            : Advanced Video Coding\r\nDuration                                 : 1h 30mn\r\nSource duration                          : 1h 30mn\r\nBit rate                                 : 2 500 Kbps\r\nMaximum bit rate                         : 21.2 Mbps\r\nWidth                                    : 1 280 pixels\r\nHeight                                   : 688 pixels\r\nDisplay aspect ratio                     : 1.85:1\r\nFrame rate mode                          : Variable\r\nFrame rate                               : 23.976 fps\r\nMinimum frame rate                       : 19.048 fps\r\nMaximum frame rate                       : 24.390 fps\r\nColor space                              : YUV\r\nChroma subsampling                       : 4:2:0\r\nBit depth                                : 8 bits\r\nScan type                                : Progressive\r\nBits/(Pixel*Frame)                       : 0.118\r\nStream size                              : 1.58 GiB (87%)\r\nWriting library                          : x264 core 112\r\nEncoding settings                        : cabac=1 / ref=5 / deblock=1:0:0 / analyse=0x3:0x113 / me=hex / subme=7 / psy=1 / psy_rd=1.00:0.00 / mixed_ref=1 / me_range=16 / chroma_me=1 / trellis=1 / 8x8dct=1 / cqm=0 / deadzone=21,11 / fast_pskip=1 / chroma_qp_offset=-2 / threads=3 / sliced_threads=0 / nr=0 / decimate=1 / interlaced=0 / constrained_intra=0 / bframes=5 / b_pyramid=2 / b_adapt=2 / b_bias=0 / direct=1 / weightb=1 / open_gop=0 / weightp=2 / keyint=240 / keyint_min=23 / scenecut=40 / intra_refresh=0 / rc_lookahead=50 / rc=abr / mbtree=1 / bitrate=2500 / ratetol=1.0 / qcomp=0.60 / qpmin=3 / qpmax=51 / qpstep=4 / ip_ratio=1.40 / aq=1:1.00\r\nEncoded date                             : UTC 2015-10-21 04:37:17\r\nTagged date                              : UTC 2015-10-20 15:30:33\r\nColor primaries                          : BT.709\r\nTransfer characteristics                 : BT.709\r\nMatrix coefficients                      : BT.709\r\n\r\nAudio\r\nID                                       : 2\r\nFormat                                   : AAC\r\nFormat/Info                              : Advanced Audio Codec\r\nFormat profile                           : LC\r\nCodec ID                                 : 40\r\nDuration                                 : 1h 30mn\r\nBit rate mode                            : Variable\r\nBit rate                                 : 384 Kbps\r\nMaximum bit rate                         : 659 Kbps\r\nChannel(s)                               : 6 channels\r\nChannel positions                        : Front: L C R, Side: L R, LFE\r\nSampling rate                            : 48.0 KHz\r\nCompression mode                         : Lossy\r\nDelay relative to video                  : 83ms\r\nStream size                              : 249 MiB (13%)\r\nLanguage                                 : English\r\nEncoded date                             : UTC 2015-10-20 15:29:52\r\nTagged date                              : UTC 2015-10-20 15:30:33\r\n\r\nEnjoy","torrent":{"xt":"urn:btih:dd4fef4906a76a207d6e4b923c9efdef7c65d1f9","amp;dn":"Minions+2015+720p+BRRip+X264+MP4+Multisubs+AAC-CC","amp;tr":["udp%3A%2F%2Ftracker.leechers-paradise.org%3A6969","udp%3A%2F%2Fzer0day.ch%3A1337","udp%3A%2F%2Fopen.demonii.com%3A1337","udp%3A%2F%2Ftracker.coppersurfer.tk%3A6969","udp%3A%2F%2Fexodus.desync.com%3A6969"],"infoHash":"dd4fef4906a76a207d6e4b923c9efdef7c65d1f9","infoHashBuffer":{"type":"Buffer","data":[221,79,239,73,6,167,106,32,125,110,75,146,60,158,253,239,124,101,209,249]},"announce":[],"urlList":[]}}